STARTFONT 2.1
COMMENT $XConsortium: luRS19.bdf,v 1.3 94/04/02 16:00:14 gildea Exp $
COMMENT  (c) Copyright Bigelow & Holmes 1986, 1985. Lucida is a registered
COMMENT  trademark of Bigelow & Holmes. See LEGAL NOTICE file for terms 
COMMENT  of the license. 
FONT -RFX-Serene-Medium-R-Normal-Sans-19-190-75-75-P-108-windows-1251
SIZE 19 72 72
FONTBOUNDINGBOX 32 22 -13 -4
STARTPROPERTIES 24
FONTNAME_REGISTRY ""
FOUNDRY "RFX"
FAMILY_NAME "Serene"
WEIGHT_NAME "Medium"
SLANT "R"
SETWIDTH_NAME "Normal"
ADD_STYLE_NAME "Sans"
PIXEL_SIZE 19
POINT_SIZE 190
RESOLUTION_X 75
RESOLUTION_Y 75
SPACING "P"
AVERAGE_WIDTH "108"
CHARSET_REGISTRY "windows"
CHARSET_ENCODING "1251"
COPYRIGHT "Copyright Bigelow & Holmes 1986, 1985."
FONT_ASCENT 17
FONT_DESCENT 4
DEFAULT_CHAR 32
FACE_NAME "Lucida Sans"
COPYRIGHT2 "Cyrillic and Euro glyphs copyright 2000 Dmitry Yu. Bolkhovityanov, bolkhov@inp.nsk.su"
SOURCEDATE "Tue Jul 25 14:50:11 2000"
PKGVERSION "1.1"
ASSEMBLER "cvtbdf.pl (Linux)"
ENDPROPERTIES
CHARS 244
STARTCHAR space
ENCODING 32
SWIDTH 316 0
DWIDTH 6 0
BBX 0 0 0 0
BITMAP
ENDCHAR
STARTCHAR exclam
ENCODING 33
SWIDTH 205 0
DWIDTH 6 0
BBX 2 14 2 0
BITMAP
C0
C0
C0
C0
C0
C0
C0
C0
C0
C0
00
00
C0
C0
ENDCHAR
STARTCHAR quotedbl
ENCODING 34
SWIDTH 373 0
DWIDTH 7 0
BBX 5 5 1 9
BITMAP
D8
D8
D8
D8
D8
ENDCHAR
STARTCHAR numbersign
ENCODING 35
SWIDTH 633 0
DWIDTH 12 0
BBX 12 14 0 0
BITMAP
06E0
0EC0
0CC0
0CC0
7FF0
7FF0
1980
1980
1980
FFE0
FFE0
3300
3300
7600
ENDCHAR
STARTCHAR dollar
ENCODING 36
SWIDTH 633 0
DWIDTH 12 0
BBX 8 17 2 -2
BITMAP
18
7F
FD
D8
D8
D8
78
38
1C
1E
1B
1B
1B
FF
7E
1C
18
ENDCHAR
STARTCHAR percent
ENCODING 37
SWIDTH 669 0
DWIDTH 13 0
BBX 13 14 0 0
BITMAP
7838
FC30
CC60
CCE0
FDC0
7B80
03F0
06F0
0F98
1D98
3998
3198
60F0
E0F0
ENDCHAR
STARTCHAR ampersand
ENCODING 38
SWIDTH 697 0
DWIDTH 13 0
BBX 11 14 1 0
BITMAP
1E00
3F00
3300
3300
3700
3E00
7800
EC60
CE60
C760
C3C0
E380
7F80
3CE0
ENDCHAR
STARTCHAR quotesingle
ENCODING 39
SWIDTH 229 0
DWIDTH 4 0
BBX 2 5 1 9
BITMAP
C0
C0
C0
C0
C0
ENDCHAR
STARTCHAR parenleft
ENCODING 40
SWIDTH 325 0
DWIDTH 6 0
BBX 5 18 1 -4
BITMAP
08
18
30
20
60
40
C0
C0
C0
C0
C0
C0
40
60
60
30
18
08
ENDCHAR
STARTCHAR parenright
ENCODING 41
SWIDTH 325 0
DWIDTH 6 0
BBX 5 18 0 -4
BITMAP
80
C0
60
20
30
10
18
18
18
18
18
18
10
30
30
60
C0
80
ENDCHAR
STARTCHAR asterisk
ENCODING 42
SWIDTH 482 0
DWIDTH 9 0
BBX 7 7 1 7
BITMAP
10
10
D6
6C
28
28
44
ENDCHAR
STARTCHAR plus
ENCODING 43
SWIDTH 633 0
DWIDTH 12 0
BBX 12 12 0 0
BITMAP
0600
0600
0600
0600
0600
FFF0
FFF0
0600
0600
0600
0600
0600
ENDCHAR
STARTCHAR comma
ENCODING 44
SWIDTH 316 0
DWIDTH 6 0
BBX 3 7 2 -4
BITMAP
E0
E0
E0
60
60
60
C0
ENDCHAR
STARTCHAR minus
ENCODING 45
SWIDTH 633 0
DWIDTH 12 0
BBX 11 2 1 5
BITMAP
FFE0
FFE0
ENDCHAR
STARTCHAR period
ENCODING 46
SWIDTH 316 0
DWIDTH 6 0
BBX 2 2 2 0
BITMAP
C0
C0
ENDCHAR
STARTCHAR slash
ENCODING 47
SWIDTH 494 0
DWIDTH 9 0
BBX 9 18 0 -4
BITMAP
0180
0180
0300
0300
0600
0600
0E00
0C00
0C00
1800
1800
3800
3000
3000
6000
6000
C000
C000
ENDCHAR
STARTCHAR zero
ENCODING 48
SWIDTH 633 0
DWIDTH 12 0
BBX 10 14 1 0
BITMAP
1E00
3F00
7380
6180
C0C0
C0C0
C0C0
C0C0
C0C0
C0C0
6180
7380
3F00
1E00
ENDCHAR
STARTCHAR one
ENCODING 49
SWIDTH 633 0
DWIDTH 12 0
BBX 4 14 3 0
BITMAP
F0
F0
30
30
30
30
30
30
30
30
30
30
30
30
ENDCHAR
STARTCHAR two
ENCODING 50
SWIDTH 633 0
DWIDTH 12 0
BBX 8 14 2 0
BITMAP
7C
FE
87
03
03
03
06
0E
38
30
60
C0
FF
FF
ENDCHAR
STARTCHAR three
ENCODING 51
SWIDTH 633 0
DWIDTH 12 0
BBX 8 14 2 0
BITMAP
7C
FE
87
03
03
06
78
7E
07
03
03
87
FE
FC
ENDCHAR
STARTCHAR four
ENCODING 52
SWIDTH 633 0
DWIDTH 12 0
BBX 10 14 1 0
BITMAP
0700
0700
0F00
1F00
3B00
3300
6300
E300
FFC0
FFC0
0300
0300
0300
0300
ENDCHAR
STARTCHAR five
ENCODING 53
SWIDTH 633 0
DWIDTH 12 0
BBX 7 14 3 0
BITMAP
FE
FE
C0
C0
C0
F8
FC
0E
06
06
06
8E
FC
F8
ENDCHAR
STARTCHAR six
ENCODING 54
SWIDTH 633 0
DWIDTH 12 0
BBX 9 14 1 0
BITMAP
1F00
3F00
7100
6000
C000
DE00
FF00
E380
C180
C180
4180
6300
3F00
1E00
ENDCHAR
STARTCHAR seven
ENCODING 55
SWIDTH 633 0
DWIDTH 12 0
BBX 9 14 2 0
BITMAP
FF80
FF80
0380
0300
0700
0600
0C00
1C00
1800
3800
3000
7000
6000
6000
ENDCHAR
STARTCHAR eight
ENCODING 56
SWIDTH 633 0
DWIDTH 12 0
BBX 9 14 2 0
BITMAP
1E00
3F80
7380
6180
6180
3200
3C00
7F00
E380
C180
C180
E380
7F00
3E00
ENDCHAR
STARTCHAR nine
ENCODING 57
SWIDTH 633 0
DWIDTH 12 0
BBX 9 14 2 0
BITMAP
3C00
7F00
E300
C180
C180
C180
E380
7D80
3D80
0180
0300
4700
7E00
7C00
ENDCHAR
STARTCHAR colon
ENCODING 58
SWIDTH 316 0
DWIDTH 6 0
BBX 2 10 2 0
BITMAP
C0
C0
00
00
00
00
00
00
C0
C0
ENDCHAR
STARTCHAR semicolon
ENCODING 59
SWIDTH 316 0
DWIDTH 6 0
BBX 2 14 2 -4
BITMAP
C0
C0
00
00
00
00
00
00
C0
C0
C0
C0
C0
80
ENDCHAR
STARTCHAR less
ENCODING 60
SWIDTH 633 0
DWIDTH 12 0
BBX 12 12 2 0
BITMAP
0010
0070
01E0
0780
1E00
FC00
7C00
1E00
0780
01E0
0070
0010
ENDCHAR
STARTCHAR equal
ENCODING 61
SWIDTH 633 0
DWIDTH 12 0
BBX 11 5 1 3
BITMAP
FFE0
FFE0
0000
FFE0
FFE0
ENDCHAR
STARTCHAR greater
ENCODING 62
SWIDTH 633 0
DWIDTH 12 0
BBX 12 12 1 0
BITMAP
8000
E000
7800
1E00
0780
03E0
03F0
0780
1E00
7800
E000
8000
ENDCHAR
STARTCHAR question
ENCODING 63
SWIDTH 422 0
DWIDTH 8 0
BBX 7 14 0 0
BITMAP
78
FC
8E
06
06
0C
1C
38
30
30
30
00
30
30
ENDCHAR
STARTCHAR at
ENCODING 64
SWIDTH 858 0
DWIDTH 16 0
BBX 15 14 2 0
BITMAP
03E0
0FF8
1C1C
31EE
63C6
6646
CC86
CD86
CDEC
CE7C
EC78
7040
3FC0
0F80
ENDCHAR
STARTCHAR A
ENCODING 65
SWIDTH 690 0
DWIDTH 13 0
BBX 13 14 0 0
BITMAP
0700
0700
0F80
0D80
0D80
18C0
18C0
30E0
3FE0
3FE0
6030
6030
E030
C018
ENDCHAR
STARTCHAR B
ENCODING 66
SWIDTH 575 0
DWIDTH 11 0
BBX 8 14 2 0
BITMAP
FC
FE
C3
C3
C3
C6
F8
FC
C7
C3
C3
C3
FE
FC
ENDCHAR
STARTCHAR C
ENCODING 67
SWIDTH 692 0
DWIDTH 13 0
BBX 11 14 1 0
BITMAP
0FC0
3FE0
7020
6000
E000
C000
C000
C000
C000
C000
6000
7020
3FE0
0FC0
ENDCHAR
STARTCHAR D
ENCODING 68
SWIDTH 749 0
DWIDTH 14 0
BBX 11 14 2 0
BITMAP
FE00
FF80
C1C0
C0C0
C060
C060
C060
C060
C060
C060
C0C0
C1C0
FF80
FE00
ENDCHAR
STARTCHAR E
ENCODING 69
SWIDTH 542 0
DWIDTH 10 0
BBX 8 14 2 0
BITMAP
FF
FF
C0
C0
C0
C0
FE
FE
C0
C0
C0
C0
FF
FF
ENDCHAR
STARTCHAR F
ENCODING 70
SWIDTH 536 0
DWIDTH 10 0
BBX 8 14 2 0
BITMAP
FF
FF
C0
C0
C0
C0
FE
FE
C0
C0
C0
C0
C0
C0
ENDCHAR
STARTCHAR G
ENCODING 71
SWIDTH 723 0
DWIDTH 14 0
BBX 11 14 1 0
BITMAP
0FC0
3FE0
7020
6000
E000
C000
C000
C060
C060
C060
6060
7060
3FE0
0FC0
ENDCHAR
STARTCHAR H
ENCODING 72
SWIDTH 735 0
DWIDTH 14 0
BBX 10 14 2 0
BITMAP
C0C0
C0C0
C0C0
C0C0
C0C0
C0C0
FFC0
FFC0
C0C0
C0C0
C0C0
C0C0
C0C0
C0C0
ENDCHAR
STARTCHAR I
ENCODING 73
SWIDTH 288 0
DWIDTH 5 0
BBX 2 14 2 0
BITMAP
C0
C0
C0
C0
C0
C0
C0
C0
C0
C0
C0
C0
C0
C0
ENDCHAR
STARTCHAR J
ENCODING 74
SWIDTH 311 0
DWIDTH 6 0
BBX 6 18 -1 -4
BITMAP
0C
0C
0C
0C
0C
0C
0C
0C
0C
0C
0C
0C
0C
0C
0C
0C
F8
F0
ENDCHAR
STARTCHAR K
ENCODING 75
SWIDTH 653 0
DWIDTH 12 0
BBX 10 14 2 0
BITMAP
C180
C300
C700
CE00
CC00
D800
F800
F800
DC00
CC00
C600
C300
C380
C1C0
ENDCHAR
STARTCHAR L
ENCODING 76
SWIDTH 533 0
DWIDTH 10 0
BBX 8 14 2 0
BITMAP
C0
C0
C0
C0
C0
C0
C0
C0
C0
C0
C0
C0
FF
FF
ENDCHAR
STARTCHAR M
ENCODING 77
SWIDTH 861 0
DWIDTH 16 0
BBX 13 14 2 0
BITMAP
E038
E038
F078
F078
F878
D8D8
D8D8
DCD8
CD98
CD98
CF98
C718
C718
C018
ENDCHAR
STARTCHAR N
ENCODING 78
SWIDTH 741 0
DWIDTH 14 0
BBX 10 14 2 0
BITMAP
C0C0
E0C0
F0C0
F0C0
F8C0
D8C0
CCC0
CCC0
C6C0
C7C0
C3C0
C3C0
C1C0
C0C0
ENDCHAR
STARTCHAR O
ENCODING 79
SWIDTH 777 0
DWIDTH 15 0
BBX 13 14 1 0
BITMAP
0F80
3FE0
7070
6030
E038
C018
C018
C018
C018
E038
6030
7070
3FE0
0F80
ENDCHAR
STARTCHAR P
ENCODING 80
SWIDTH 553 0
DWIDTH 10 0
BBX 8 14 2 0
BITMAP
FE
FF
C7
C3
C3
C3
C6
FE
F8
C0
C0
C0
C0
C0
ENDCHAR
STARTCHAR Q
ENCODING 81
SWIDTH 777 0
DWIDTH 15 0
BBX 14 18 1 -4
BITMAP
0F80
3FE0
7070
6030
E038
C018
C018
C018
C018
E038
6030
7070
3FE0
0FC0
00F0
007C
0038
0008
ENDCHAR
STARTCHAR R
ENCODING 82
SWIDTH 633 0
DWIDTH 12 0
BBX 10 14 2 0
BITMAP
FC00
FE00
C700
C300
C300
C200
C600
F800
FC00
CE00
C600
C300
C380
C1C0
ENDCHAR
STARTCHAR S
ENCODING 83
SWIDTH 539 0
DWIDTH 10 0
BBX 8 14 1 0
BITMAP
3E
7E
E2
C0
C0
70
3C
1E
07
03
03
87
FE
7C
ENDCHAR
STARTCHAR T
ENCODING 84
SWIDTH 633 0
DWIDTH 12 0
BBX 12 14 0 0
BITMAP
FFF0
FFF0
0600
0600
0600
0600
0600
0600
0600
0600
0600
0600
0600
0600
ENDCHAR
STARTCHAR U
ENCODING 85
SWIDTH 693 0
DWIDTH 13 0
BBX 10 14 2 0
BITMAP
C0C0
C0C0
C0C0
C0C0
C0C0
C0C0
C0C0
C0C0
C0C0
C0C0
C0C0
E1C0
7F80
3F00
ENDCHAR
STARTCHAR V
ENCODING 86
SWIDTH 654 0
DWIDTH 12 0
BBX 12 14 0 0
BITMAP
C030
E030
6060
6060
30E0
30C0
30C0
19C0
1980
1D80
0F00
0F00
0700
0600
ENDCHAR
STARTCHAR W
ENCODING 87
SWIDTH 855 0
DWIDTH 16 0
BBX 16 14 0 0
BITMAP
C183
C183
63C7
63C6
63C6
63C6
36EC
366C
366C
366C
1E78
1C38
1C38
1C38
ENDCHAR
STARTCHAR X
ENCODING 88
SWIDTH 626 0
DWIDTH 12 0
BBX 11 14 0 0
BITMAP
E0E0
60C0
31C0
3980
1B00
0F00
0E00
0E00
1F00
1B00
3180
71C0
60C0
C0E0
ENDCHAR
STARTCHAR Y
ENCODING 89
SWIDTH 623 0
DWIDTH 12 0
BBX 12 14 0 0
BITMAP
E030
6060
70E0
30C0
1980
1F80
0F00
0700
0600
0600
0600
0600
0600
0600
ENDCHAR
STARTCHAR Z
ENCODING 90
SWIDTH 605 0
DWIDTH 11 0
BBX 10 14 1 0
BITMAP
FFC0
FFC0
0180
0380
0300
0600
0E00
1C00
1800
3000
7000
E000
FFC0
FFC0
ENDCHAR
STARTCHAR bracketleft
ENCODING 91
SWIDTH 325 0
DWIDTH 6 0
BBX 4 18 2 -4
BITMAP
F0
F0
C0
C0
C0
C0
C0
C0
C0
C0
C0
C0
C0
C0
C0
C0
F0
F0
ENDCHAR
STARTCHAR backslash
ENCODING 92
SWIDTH 494 0
DWIDTH 9 0
BBX 9 18 0 -4
BITMAP
C000
C000
6000
6000
3000
3000
3800
1800
1800
0C00
0C00
0E00
0600
0600
0300
0300
0180
0180
ENDCHAR
STARTCHAR bracketright
ENCODING 93
SWIDTH 325 0
DWIDTH 6 0
BBX 4 18 1 -4
BITMAP
F0
F0
30
30
30
30
30
30
30
30
30
30
30
30
30
30
F0
F0
ENDCHAR
STARTCHAR asciicircum
ENCODING 94
SWIDTH 633 0
DWIDTH 12 0
BBX 11 13 1 2
BITMAP
0400
0400
0E00
0E00
0E00
1B00
1B00
3180
3180
60C0
60C0
E0E0
C060
ENDCHAR
STARTCHAR underscore
ENCODING 95
SWIDTH 500 0
DWIDTH 10 0
BBX 8 2 1 -2
BITMAP
FF
FF
ENDCHAR
STARTCHAR grave
ENCODING 96
SWIDTH 614 0
DWIDTH 12 0
BBX 4 3 3 11
BITMAP
C0
60
30
ENDCHAR
STARTCHAR a
ENCODING 97
SWIDTH 552 0
DWIDTH 10 0
BBX 9 10 1 0
BITMAP
3E00
7F00
4300
0300
3F00
7F00
C300
C300
FF80
7380
ENDCHAR
STARTCHAR b
ENCODING 98
SWIDTH 630 0
DWIDTH 12 0
BBX 9 14 2 0
BITMAP
C000
C000
C000
C000
DE00
FF00
E380
C180
C180
C180
C180
E300
FF00
DE00
ENDCHAR
STARTCHAR c
ENCODING 99
SWIDTH 518 0
DWIDTH 10 0
BBX 8 10 1 0
BITMAP
1F
7F
60
C0
C0
C0
C0
61
7F
1E
ENDCHAR
STARTCHAR d
ENCODING 100
SWIDTH 630 0
DWIDTH 12 0
BBX 9 14 1 0
BITMAP
0180
0180
0180
0180
3D80
7F80
6380
C180
C180
C180
C180
E380
7F80
3D80
ENDCHAR
STARTCHAR e
ENCODING 101
SWIDTH 557 0
DWIDTH 11 0
BBX 8 10 1 0
BITMAP
3C
7E
63
C3
FF
FF
C0
E1
7F
3E
ENDCHAR
STARTCHAR f
ENCODING 102
SWIDTH 367 0
DWIDTH 7 0
BBX 7 15 1 0
BITMAP
1E
3E
60
60
60
FC
FC
60
60
60
60
60
60
60
60
ENDCHAR
STARTCHAR g
ENCODING 103
SWIDTH 623 0
DWIDTH 12 0
BBX 9 14 1 -4
BITMAP
3D80
7F80
6380
C180
C180
C180
C180
E380
7D80
3980
0180
4300
7F00
7E00
ENDCHAR
STARTCHAR h
ENCODING 104
SWIDTH 620 0
DWIDTH 12 0
BBX 8 14 2 0
BITMAP
C0
C0
C0
C0
CE
DF
E3
C3
C3
C3
C3
C3
C3
C3
ENDCHAR
STARTCHAR i
ENCODING 105
SWIDTH 289 0
DWIDTH 5 0
BBX 2 14 2 0
BITMAP
C0
C0
00
00
C0
C0
C0
C0
C0
C0
C0
C0
C0
C0
ENDCHAR
STARTCHAR j
ENCODING 106
SWIDTH 304 0
DWIDTH 6 0
BBX 6 18 -1 -4
BITMAP
0C
0C
00
00
0C
0C
0C
0C
0C
0C
0C
0C
0C
0C
0C
8C
F8
F0
ENDCHAR
STARTCHAR k
ENCODING 107
SWIDTH 585 0
DWIDTH 11 0
BBX 9 14 2 0
BITMAP
C000
C000
C000
C000
C700
C600
CC00
D800
F800
F800
DC00
CE00
C700
C380
ENDCHAR
STARTCHAR l
ENCODING 108
SWIDTH 289 0
DWIDTH 5 0
BBX 2 14 2 0
BITMAP
C0
C0
C0
C0
C0
C0
C0
C0
C0
C0
C0
C0
C0
C0
ENDCHAR
STARTCHAR m
ENCODING 109
SWIDTH 934 0
DWIDTH 18 0
BBX 14 10 2 0
BITMAP
CE38
DF7C
E38C
C30C
C30C
C30C
C30C
C30C
C30C
C30C
ENDCHAR
STARTCHAR n
ENCODING 110
SWIDTH 620 0
DWIDTH 12 0
BBX 8 10 2 0
BITMAP
CE
DF
E3
C3
C3
C3
C3
C3
C3
C3
ENDCHAR
STARTCHAR o
ENCODING 111
SWIDTH 614 0
DWIDTH 12 0
BBX 10 10 1 0
BITMAP
1E00
7F80
6180
C0C0
C0C0
C0C0
C0C0
6180
7F80
1E00
ENDCHAR
STARTCHAR p
ENCODING 112
SWIDTH 630 0
DWIDTH 12 0
BBX 9 14 2 -4
BITMAP
DE00
FF00
E380
C180
C180
C180
C180
E300
FF00
DE00
C000
C000
C000
C000
ENDCHAR
STARTCHAR q
ENCODING 113
SWIDTH 630 0
DWIDTH 12 0
BBX 9 14 1 -4
BITMAP
3D80
7F80
6380
C180
C180
C180
C180
E380
7F80
3D80
0180
0180
0180
0180
ENDCHAR
STARTCHAR r
ENCODING 114
SWIDTH 409 0
DWIDTH 8 0
BBX 6 10 2 0
BITMAP
CC
DC
E0
C0
C0
C0
C0
C0
C0
C0
ENDCHAR
STARTCHAR s
ENCODING 115
SWIDTH 510 0
DWIDTH 10 0
BBX 7 10 1 0
BITMAP
7C
FC
C0
E0
78
3E
06
86
FE
7C
ENDCHAR
STARTCHAR t
ENCODING 116
SWIDTH 374 0
DWIDTH 7 0
BBX 6 13 1 0
BITMAP
60
60
60
FC
FC
60
60
60
60
60
60
7C
3C
ENDCHAR
STARTCHAR u
ENCODING 117
SWIDTH 620 0
DWIDTH 12 0
BBX 8 10 2 0
BITMAP
C3
C3
C3
C3
C3
C3
C3
C7
FB
73
ENDCHAR
STARTCHAR v
ENCODING 118
SWIDTH 572 0
DWIDTH 10 0
BBX 10 10 0 0
BITMAP
C0C0
E1C0
6180
6180
3300
3300
3E00
1E00
1E00
0C00
ENDCHAR
STARTCHAR w
ENCODING 119
SWIDTH 840 0
DWIDTH 15 0
BBX 14 10 0 0
BITMAP
C30C
C78C
6798
6798
6798
6CF0
3CF0
3CF0
38F0
3860
ENDCHAR
STARTCHAR x
ENCODING 120
SWIDTH 613 0
DWIDTH 12 0
BBX 10 10 1 0
BITMAP
E1C0
7180
3300
1F00
1E00
1E00
3E00
3300
6380
E1C0
ENDCHAR
STARTCHAR y
ENCODING 121
SWIDTH 568 0
DWIDTH 10 0
BBX 10 14 0 -4
BITMAP
C0C0
61C0
6180
6180
3300
3300
1F00
1E00
1E00
0C00
0C00
1C00
1800
3800
ENDCHAR
STARTCHAR z
ENCODING 122
SWIDTH 573 0
DWIDTH 11 0
BBX 9 10 1 0
BITMAP
FF80
FF80
0300
0600
0C00
1800
3000
6000
FF80
FF80
ENDCHAR
STARTCHAR braceleft
ENCODING 123
SWIDTH 325 0
DWIDTH 6 0
BBX 5 18 0 -4
BITMAP
18
38
30
30
30
30
30
30
20
E0
F0
30
30
30
30
30
38
18
ENDCHAR
STARTCHAR bar
ENCODING 124
SWIDTH 265 0
DWIDTH 5 0
BBX 2 18 2 -4
BITMAP
C0
C0
C0
C0
C0
C0
C0
C0
C0
C0
C0
C0
C0
C0
C0
C0
C0
C0
ENDCHAR
STARTCHAR braceright
ENCODING 125
SWIDTH 325 0
DWIDTH 6 0
BBX 5 18 1 -4
BITMAP
C0
E0
60
60
60
60
60
78
38
20
60
60
60
60
60
60
E0
C0
ENDCHAR
STARTCHAR asciitilde
ENCODING 126
SWIDTH 633 0
DWIDTH 12 0
BBX 11 5 1 3
BITMAP
7860
7C60
CE60
C7C0
C1C0
ENDCHAR
STARTCHAR afii10051
ENCODING 128
SWIDTH 842 0
DWIDTH 16 0
BBX 15 14 0 0
BITMAP
FFF0
FFF0
0600
0600
0600
06F8
07FC
070E
0606
0606
0606
060E
063C
0638
ENDCHAR
STARTCHAR afii10052
ENCODING 129
SWIDTH 526 0
DWIDTH 10 0
BBX 8 18 2 0
BITMAP
0C
18
30
00
FF
FF
C0
C0
C0
C0
C0
C0
C0
C0
C0
C0
C0
C0
ENDCHAR
STARTCHAR quotesinglbase
ENCODING 130
SWIDTH 229 0
DWIDTH 4 0
BBX 2 7 1 -4
BITMAP
C0
C0
C0
C0
C0
C0
80
ENDCHAR
STARTCHAR afii10100
ENCODING 131
SWIDTH 473 0
DWIDTH 9 0
BBX 7 14 2 0
BITMAP
0C
18
30
00
FE
FE
C0
C0
C0
C0
C0
C0
C0
C0
ENDCHAR
STARTCHAR quotedblbase
ENCODING 132
SWIDTH 373 0
DWIDTH 7 0
BBX 5 6 1 -4
BITMAP
F8
F8
78
78
78
D0
ENDCHAR
STARTCHAR ellipsis
ENCODING 133
SWIDTH 1000 0
DWIDTH 19 0
BBX 14 2 3 0
BITMAP
C30C
C30C
ENDCHAR
STARTCHAR dagger
ENCODING 134
SWIDTH 633 0
DWIDTH 12 0
BBX 8 18 2 -4
BITMAP
18
18
18
18
18
FF
FF
18
18
18
18
18
18
18
18
18
18
18
ENDCHAR
STARTCHAR daggerdbl
ENCODING 135
SWIDTH 633 0
DWIDTH 12 0
BBX 8 18 2 -4
BITMAP
18
18
18
18
18
FF
FF
18
18
18
18
FF
FF
18
18
18
18
18
ENDCHAR
STARTCHAR Euro
ENCODING 136
SWIDTH 736 0
DWIDTH 14 0
BBX 12 14 1 0
BITMAP
07E0
1FF0
3810
3000
7000
FF80
6000
FF00
6000
6000
3000
3810
1FF0
07E0
ENDCHAR
STARTCHAR perthousand
ENCODING 137
SWIDTH 1012 0
DWIDTH 19 0
BBX 18 14 1 0
BITMAP
783000
FC6000
CCE000
CDC000
FD8000
7B0000
07E780
0FE780
0F3CC0
1B3CC0
3B3CC0
733CC0
61E780
C1E780
ENDCHAR
STARTCHAR afii10058
ENCODING 138
SWIDTH 947 0
DWIDTH 18 0
BBX 16 14 1 0
BITMAP
3FC0
3FC0
30C0
30C0
30C0
30C0
30FC
30FE
30C7
30C3
30C3
60C7
E0FF
C0FE
ENDCHAR
STARTCHAR guilsinglleft
ENCODING 139
SWIDTH 331 0
DWIDTH 6 0
BBX 5 9 1 0
BITMAP
18
38
70
E0
C0
E0
70
38
18
ENDCHAR
STARTCHAR afii10059
ENCODING 140
SWIDTH 947 0
DWIDTH 18 0
BBX 15 14 2 0
BITMAP
C180
C180
C180
C180
C180
C180
FFF8
FFFC
C18E
C186
C186
C18E
C1FE
C1FC
ENDCHAR
STARTCHAR afii10061
ENCODING 141
SWIDTH 631 0
DWIDTH 12 0
BBX 10 18 2 0
BITMAP
0600
0C00
1800
0000
C180
C300
C700
CE00
CC00
D800
F800
F800
DC00
CC00
C600
C300
C380
C1C0
ENDCHAR
STARTCHAR afii10060
ENCODING 142
SWIDTH 842 0
DWIDTH 16 0
BBX 15 14 0 0
BITMAP
FFF0
FFF0
0600
0600
0600
06F8
07FC
070E
0606
0606
0606
0606
0606
0606
ENDCHAR
STARTCHAR afii10145
ENCODING 143
SWIDTH 736 0
DWIDTH 14 0
BBX 10 17 2 -3
BITMAP
C0C0
C0C0
C0C0
C0C0
C0C0
C0C0
C0C0
C0C0
C0C0
C0C0
C0C0
C0C0
FFC0
FFC0
0C00
0C00
0C00
ENDCHAR
STARTCHAR afii10099
ENCODING 144
SWIDTH 631 0
DWIDTH 12 0
BBX 9 18 1 -4
BITMAP
6000
FE00
FE00
6000
6700
6F80
7180
6180
6180
6180
6180
6180
6180
6180
0180
0300
0F00
0E00
ENDCHAR
STARTCHAR quoteleft
ENCODING 145
SWIDTH 229 0
DWIDTH 4 0
BBX 3 5 1 9
BITMAP
60
C0
C0
E0
E0
ENDCHAR
STARTCHAR quoteright
ENCODING 146
SWIDTH 229 0
DWIDTH 4 0
BBX 3 5 1 9
BITMAP
E0
E0
60
60
C0
ENDCHAR
STARTCHAR quotedblleft
ENCODING 147
SWIDTH 373 0
DWIDTH 7 0
BBX 5 5 1 9
BITMAP
58
F0
F0
F8
F8
ENDCHAR
STARTCHAR quotedblright
ENCODING 148
SWIDTH 373 0
DWIDTH 7 0
BBX 5 5 1 9
BITMAP
F8
F8
78
78
D0
ENDCHAR
STARTCHAR bullet
ENCODING 149
SWIDTH 633 0
DWIDTH 12 0
BBX 6 6 3 3
BITMAP
FC
FC
FC
FC
FC
FC
ENDCHAR
STARTCHAR endash
ENCODING 150
SWIDTH 500 0
DWIDTH 10 0
BBX 8 2 1 5
BITMAP
FF
FF
ENDCHAR
STARTCHAR emdash
ENCODING 151
SWIDTH 1000 0
DWIDTH 19 0
BBX 17 2 1 4
BITMAP
FFFF80
FFFF80
ENDCHAR
STARTCHAR trademark
ENCODING 153
SWIDTH 807 0
DWIDTH 15 0
BBX 14 8 0 6
BITMAP
FDDC
FDDC
31DC
31FC
31FC
31FC
31FC
318C
ENDCHAR
STARTCHAR afii10106
ENCODING 154
SWIDTH 894 0
DWIDTH 17 0
BBX 15 10 1 0
BITMAP
3F80
3F80
3180
3180
31F8
31FC
3186
3186
F1FE
E1FC
ENDCHAR
STARTCHAR guilsinglright
ENCODING 155
SWIDTH 331 0
DWIDTH 6 0
BBX 5 9 0 0
BITMAP
C0
E0
70
38
18
38
70
E0
C0
ENDCHAR
STARTCHAR afii10107
ENCODING 156
SWIDTH 894 0
DWIDTH 17 0
BBX 14 10 2 0
BITMAP
C300
C300
C300
C300
FFF0
FFF8
C30C
C30C
C3FC
C3F8
ENDCHAR
STARTCHAR afii10109
ENCODING 157
SWIDTH 578 0
DWIDTH 11 0
BBX 9 14 2 0
BITMAP
0C00
1800
3000
0000
C700
C600
CC00
D800
F800
F800
DC00
CE00
C700
C380
ENDCHAR
STARTCHAR afii10108
ENCODING 158
SWIDTH 631 0
DWIDTH 12 0
BBX 9 14 1 0
BITMAP
6000
FE00
FE00
6000
6700
6F80
7180
6180
6180
6180
6180
6180
6180
6180
ENDCHAR
STARTCHAR afii10193
ENCODING 159
SWIDTH 631 0
DWIDTH 12 0
BBX 8 12 2 -2
BITMAP
C3
C3
C3
C3
C3
C3
C3
C3
FF
FF
18
18
ENDCHAR
STARTCHAR space
ENCODING 160
SWIDTH 316 0
DWIDTH 6 0
BBX 0 0 0 0
BITMAP
ENDCHAR
STARTCHAR afii10062
ENCODING 161
SWIDTH 631 0
DWIDTH 12 0
BBX 12 18 0 0
BITMAP
1080
1F80
0F00
0000
E070
6060
7060
30C0
18C0
1980
0D80
0F00
0700
0600
0600
0C00
3C00
3800
ENDCHAR
STARTCHAR afii10110
ENCODING 162
SWIDTH 526 0
DWIDTH 10 0
BBX 10 18 0 -4
BITMAP
2100
3F00
1E00
0000
C0C0
61C0
6180
6180
3300
3300
1F00
1E00
1E00
0C00
0C00
1C00
1800
3800
ENDCHAR
STARTCHAR afii10057
ENCODING 163
SWIDTH 311 0
DWIDTH 6 0
BBX 6 18 -1 -4
BITMAP
0C
0C
0C
0C
0C
0C
0C
0C
0C
0C
0C
0C
0C
0C
0C
0C
F8
F0
ENDCHAR
STARTCHAR currency
ENCODING 164
SWIDTH 633 0
DWIDTH 12 0
BBX 10 12 1 1
BITMAP
C0C0
FFC0
7F80
3300
6180
6180
6180
6180
3300
7F80
FFC0
C0C0
ENDCHAR
STARTCHAR afii10050
ENCODING 165
SWIDTH 526 0
DWIDTH 10 0
BBX 8 17 2 0
BITMAP
03
03
03
FF
FF
C0
C0
C0
C0
C0
C0
C0
C0
C0
C0
C0
C0
ENDCHAR
STARTCHAR brokenbar
ENCODING 166
SWIDTH 265 0
DWIDTH 5 0
BBX 2 18 2 -4
BITMAP
C0
C0
C0
C0
C0
C0
C0
00
00
00
00
C0
C0
C0
C0
C0
C0
C0
ENDCHAR
STARTCHAR section
ENCODING 167
SWIDTH 633 0
DWIDTH 12 0
BBX 8 18 2 -4
BITMAP
3E
7F
E1
C0
C0
70
7C
CE
C3
E3
73
3E
0E
03
03
87
FF
7C
ENDCHAR
STARTCHAR afii10023
ENCODING 168
SWIDTH 526 0
DWIDTH 10 0
BBX 8 17 2 0
BITMAP
66
66
00
FF
FF
C0
C0
C0
C0
FE
FE
C0
C0
C0
C0
FF
FF
ENDCHAR
STARTCHAR copyright
ENCODING 169
SWIDTH 855 0
DWIDTH 16 0
BBX 15 14 1 0
BITMAP
07C0
1FF0
3838
739C
E78C
CE86
CC06
CC06
CE86
E78C
739C
3838
1FF0
07C0
ENDCHAR
STARTCHAR afii10053
ENCODING 170
SWIDTH 684 0
DWIDTH 13 0
BBX 11 14 1 0
BITMAP
0FC0
3FE0
7020
6000
C000
C000
FF00
FF00
C000
C000
6000
7020
3FE0
0FC0
ENDCHAR
STARTCHAR guillemotleft
ENCODING 171
SWIDTH 524 0
DWIDTH 10 0
BBX 8 9 1 0
BITMAP
13
3F
76
EE
DC
EC
76
37
1B
ENDCHAR
STARTCHAR logicalnot
ENCODING 172
SWIDTH 633 0
DWIDTH 12 0
BBX 11 5 1 3
BITMAP
FFE0
FFE0
0060
0060
0060
ENDCHAR
STARTCHAR hyphen
ENCODING 173
SWIDTH 325 0
DWIDTH 6 0
BBX 4 2 1 5
BITMAP
F0
F0
ENDCHAR
STARTCHAR registered
ENCODING 174
SWIDTH 633 0
DWIDTH 12 0
BBX 8 9 2 5
BITMAP
3C
7E
E7
FF
FB
FF
E7
7E
3C
ENDCHAR
STARTCHAR afii10056
ENCODING 175
SWIDTH 263 0
DWIDTH 5 0
BBX 5 17 0 0
BITMAP
D8
D8
00
30
30
30
30
30
30
30
30
30
30
30
30
30
30
ENDCHAR
STARTCHAR degree
ENCODING 176
SWIDTH 277 0
DWIDTH 5 0
BBX 3 4 1 10
BITMAP
40
A0
A0
40
ENDCHAR
STARTCHAR plusminus
ENCODING 177
SWIDTH 633 0
DWIDTH 12 0
BBX 12 12 0 0
BITMAP
0600
0600
0600
FFF0
FFF0
0600
0600
0600
0600
0000
FFF0
FFF0
ENDCHAR
STARTCHAR afii10055
ENCODING 178
SWIDTH 288 0
DWIDTH 5 0
BBX 2 14 2 0
BITMAP
C0
C0
C0
C0
C0
C0
C0
C0
C0
C0
C0
C0
C0
C0
ENDCHAR
STARTCHAR afii10103
ENCODING 179
SWIDTH 289 0
DWIDTH 5 0
BBX 2 14 2 0
BITMAP
C0
C0
00
00
C0
C0
C0
C0
C0
C0
C0
C0
C0
C0
ENDCHAR
STARTCHAR afii10098
ENCODING 180
SWIDTH 473 0
DWIDTH 9 0
BBX 7 12 2 0
BITMAP
06
06
FE
FE
C0
C0
C0
C0
C0
C0
C0
C0
ENDCHAR
STARTCHAR mu
ENCODING 181
SWIDTH 627 0
DWIDTH 12 0
BBX 8 14 2 -4
BITMAP
C3
C3
C3
C3
C3
C3
C3
C7
FF
FB
C0
C0
C0
C0
ENDCHAR
STARTCHAR paragraph
ENCODING 182
SWIDTH 633 0
DWIDTH 12 0
BBX 8 18 2 -4
BITMAP
7F
FF
FF
FF
FF
7F
7F
0F
0F
0F
0F
0F
0F
0F
0F
0F
0F
0F
ENDCHAR
STARTCHAR periodcentered
ENCODING 183
SWIDTH 316 0
DWIDTH 12 0
BBX 2 2 5 5
BITMAP
C0
C0
ENDCHAR
STARTCHAR afii10071
ENCODING 184
SWIDTH 578 0
DWIDTH 11 0
BBX 8 13 1 0
BITMAP
66
66
00
3C
7E
63
C3
FF
FF
C0
E1
7F
3E
ENDCHAR
STARTCHAR afii61352
ENCODING 185
SWIDTH 1000 0
DWIDTH 19 0
BBX 16 14 2 0
BITMAP
C0C0
E0C0
F0C0
F0CE
F8DF
D8DB
CCDB
CCDF
C6CE
C7C0
C3DF
C3DF
C1C0
C0C0
ENDCHAR
STARTCHAR afii10101
ENCODING 186
SWIDTH 526 0
DWIDTH 10 0
BBX 8 10 1 0
BITMAP
1E
7F
61
C0
F8
F8
C0
61
7F
1E
ENDCHAR
STARTCHAR guillemotright
ENCODING 187
SWIDTH 524 0
DWIDTH 10 0
BBX 8 9 1 0
BITMAP
D8
EC
6E
77
3B
37
6E
FC
C8
ENDCHAR
STARTCHAR afii10105
ENCODING 188
SWIDTH 304 0
DWIDTH 6 0
BBX 6 18 -1 -4
BITMAP
0C
0C
00
00
0C
0C
0C
0C
0C
0C
0C
0C
0C
0C
0C
8C
F8
F0
ENDCHAR
STARTCHAR afii10054
ENCODING 189
SWIDTH 539 0
DWIDTH 10 0
BBX 8 14 1 0
BITMAP
3E
7E
E2
C0
C0
70
3C
1E
07
03
03
87
FE
7C
ENDCHAR
STARTCHAR afii10102
ENCODING 190
SWIDTH 510 0
DWIDTH 10 0
BBX 7 10 1 0
BITMAP
7C
FC
C0
E0
78
3E
06
86
FE
7C
ENDCHAR
STARTCHAR afii10104
ENCODING 191
SWIDTH 263 0
DWIDTH 5 0
BBX 5 14 0 0
BITMAP
D8
D8
00
00
30
30
30
30
30
30
30
30
30
30
ENDCHAR
STARTCHAR afii10017
ENCODING 192
SWIDTH 684 0
DWIDTH 13 0
BBX 13 14 0 0
BITMAP
0700
0700
0F80
0D80
0D80
18C0
18C0
30E0
3FE0
3FE0
6030
6030
E030
C018
ENDCHAR
STARTCHAR afii10018
ENCODING 193
SWIDTH 578 0
DWIDTH 11 0
BBX 8 14 2 0
BITMAP
FF
FF
C0
C0
C0
C0
FC
FE
C7
C3
C3
C7
FF
FE
ENDCHAR
STARTCHAR afii10019
ENCODING 194
SWIDTH 578 0
DWIDTH 11 0
BBX 8 14 2 0
BITMAP
FC
FE
C3
C3
C3
C6
F8
FC
C7
C3
C3
C3
FE
FC
ENDCHAR
STARTCHAR afii10020
ENCODING 195
SWIDTH 526 0
DWIDTH 10 0
BBX 8 14 2 0
BITMAP
FF
FF
C0
C0
C0
C0
C0
C0
C0
C0
C0
C0
C0
C0
ENDCHAR
STARTCHAR afii10021
ENCODING 196
SWIDTH 736 0
DWIDTH 14 0
BBX 12 17 1 -3
BITMAP
3FE0
3FE0
3060
3060
3060
3060
3060
3060
3060
6060
6060
6060
FFF0
FFF0
C030
C030
C030
ENDCHAR
STARTCHAR afii10022
ENCODING 197
SWIDTH 526 0
DWIDTH 10 0
BBX 8 14 2 0
BITMAP
FF
FF
C0
C0
C0
C0
FE
FE
C0
C0
C0
C0
FF
FF
ENDCHAR
STARTCHAR afii10024
ENCODING 198
SWIDTH 947 0
DWIDTH 18 0
BBX 18 14 0 0
BITMAP
60C180
30C300
38C700
1CCE00
0CCC00
06D800
07F800
07F800
0EDC00
0CCC00
18C600
30C300
70C380
E0C1C0
ENDCHAR
STARTCHAR afii10025
ENCODING 199
SWIDTH 526 0
DWIDTH 10 0
BBX 8 14 1 0
BITMAP
7C
FE
83
03
03
06
38
3C
07
03
03
83
FE
7C
ENDCHAR
STARTCHAR afii10026
ENCODING 200
SWIDTH 736 0
DWIDTH 14 0
BBX 10 14 2 0
BITMAP
C0C0
C1C0
C3C0
C3C0
C7C0
C6C0
CCC0
CCC0
D8C0
F8C0
F0C0
F0C0
E0C0
C0C0
ENDCHAR
STARTCHAR afii10027
ENCODING 201
SWIDTH 736 0
DWIDTH 14 0
BBX 10 18 2 0
BITMAP
2100
3F00
1E00
0000
C0C0
C1C0
C3C0
C3C0
C7C0
C6C0
CCC0
CCC0
D8C0
F8C0
F0C0
F0C0
E0C0
C0C0
ENDCHAR
STARTCHAR afii10028
ENCODING 202
SWIDTH 631 0
DWIDTH 12 0
BBX 10 14 2 0
BITMAP
C180
C300
C700
CE00
CC00
D800
F800
F800
DC00
CC00
C600
C300
C380
C1C0
ENDCHAR
STARTCHAR afii10029
ENCODING 203
SWIDTH 736 0
DWIDTH 14 0
BBX 11 14 1 0
BITMAP
3FE0
3FE0
3060
3060
3060
3060
3060
3060
3060
3060
3060
6060
E060
C060
ENDCHAR
STARTCHAR afii10030
ENCODING 204
SWIDTH 842 0
DWIDTH 16 0
BBX 13 14 2 0
BITMAP
E038
E038
F078
F078
F878
D8D8
D8D8
DCD8
CD98
CD98
CF98
C718
C718
C018
ENDCHAR
STARTCHAR afii10031
ENCODING 205
SWIDTH 736 0
DWIDTH 14 0
BBX 10 14 2 0
BITMAP
C0C0
C0C0
C0C0
C0C0
C0C0
C0C0
FFC0
FFC0
C0C0
C0C0
C0C0
C0C0
C0C0
C0C0
ENDCHAR
STARTCHAR afii10032
ENCODING 206
SWIDTH 789 0
DWIDTH 15 0
BBX 13 14 1 0
BITMAP
0F80
3FE0
7070
6030
E038
C018
C018
C018
C018
E038
6030
7070
3FE0
0F80
ENDCHAR
STARTCHAR afii10033
ENCODING 207
SWIDTH 736 0
DWIDTH 14 0
BBX 10 14 2 0
BITMAP
FFC0
FFC0
C0C0
C0C0
C0C0
C0C0
C0C0
C0C0
C0C0
C0C0
C0C0
C0C0
C0C0
C0C0
ENDCHAR
STARTCHAR afii10034
ENCODING 208
SWIDTH 526 0
DWIDTH 10 0
BBX 8 14 2 0
BITMAP
FE
FF
C7
C3
C3
C3
C6
FE
F8
C0
C0
C0
C0
C0
ENDCHAR
STARTCHAR afii10035
ENCODING 209
SWIDTH 684 0
DWIDTH 13 0
BBX 11 14 1 0
BITMAP
0FC0
3FE0
7020
6000
E000
C000
C000
C000
C000
C000
6000
7020
3FE0
0FC0
ENDCHAR
STARTCHAR afii10036
ENCODING 210
SWIDTH 631 0
DWIDTH 12 0
BBX 12 14 0 0
BITMAP
FFF0
FFF0
0600
0600
0600
0600
0600
0600
0600
0600
0600
0600
0600
0600
ENDCHAR
STARTCHAR afii10037
ENCODING 211
SWIDTH 631 0
DWIDTH 12 0
BBX 12 14 0 0
BITMAP
E070
6060
7060
30C0
18C0
1980
0D80
0F00
0700
0600
0600
0C00
3C00
3800
ENDCHAR
STARTCHAR afii10038
ENCODING 212
SWIDTH 842 0
DWIDTH 16 0
BBX 14 14 1 0
BITMAP
0300
0300
1FE0
7FF8
6318
C30C
C30C
C30C
C30C
6318
7FF8
1FE0
0300
0300
ENDCHAR
STARTCHAR afii10039
ENCODING 213
SWIDTH 631 0
DWIDTH 12 0
BBX 11 14 0 0
BITMAP
E0E0
60C0
31C0
3980
1B00
0F00
0E00
0E00
1F00
1B00
3180
71C0
60C0
C0E0
ENDCHAR
STARTCHAR afii10040
ENCODING 214
SWIDTH 736 0
DWIDTH 14 0
BBX 11 17 2 -3
BITMAP
C0C0
C0C0
C0C0
C0C0
C0C0
C0C0
C0C0
C0C0
C0C0
C0C0
C0C0
C0C0
FFE0
FFE0
0060
0060
0060
ENDCHAR
STARTCHAR afii10041
ENCODING 215
SWIDTH 684 0
DWIDTH 13 0
BBX 10 14 1 0
BITMAP
C0C0
C0C0
C0C0
C0C0
C0C0
C0C0
E1C0
7FC0
3EC0
00C0
00C0
00C0
00C0
00C0
ENDCHAR
STARTCHAR afii10042
ENCODING 216
SWIDTH 947 0
DWIDTH 18 0
BBX 14 14 2 0
BITMAP
C30C
C30C
C30C
C30C
C30C
C30C
C30C
C30C
C30C
C30C
C30C
C30C
FFFC
FFFC
ENDCHAR
STARTCHAR afii10043
ENCODING 217
SWIDTH 947 0
DWIDTH 18 0
BBX 15 17 2 -3
BITMAP
C30C
C30C
C30C
C30C
C30C
C30C
C30C
C30C
C30C
C30C
C30C
C30C
FFFE
FFFE
0006
0006
0006
ENDCHAR
STARTCHAR afii10044
ENCODING 218
SWIDTH 578 0
DWIDTH 11 0
BBX 10 14 0 0
BITMAP
F000
F000
3000
3000
3000
3000
3F00
3F80
31C0
30C0
30C0
31C0
3FC0
3F80
ENDCHAR
STARTCHAR afii10045
ENCODING 219
SWIDTH 842 0
DWIDTH 16 0
BBX 12 14 2 0
BITMAP
C030
C030
C030
C030
C030
C030
FC30
FE30
C730
C330
C330
C730
FF30
FE30
ENDCHAR
STARTCHAR afii10046
ENCODING 220
SWIDTH 578 0
DWIDTH 11 0
BBX 8 14 2 0
BITMAP
C0
C0
C0
C0
C0
C0
FC
FE
C7
C3
C3
C7
FF
FE
ENDCHAR
STARTCHAR afii10047
ENCODING 221
SWIDTH 684 0
DWIDTH 13 0
BBX 11 14 1 0
BITMAP
7E00
FF80
81C0
00C0
0060
0060
1FE0
1FE0
0060
0060
00C0
81C0
FF80
7E00
ENDCHAR
STARTCHAR afii10048
ENCODING 222
SWIDTH 1000 0
DWIDTH 19 0
BBX 16 14 2 0
BITMAP
C0F0
C3FC
C70E
C606
CE07
CC03
FC03
FC03
CC03
CE07
C606
C70E
C3FC
C0F0
ENDCHAR
STARTCHAR afii10049
ENCODING 223
SWIDTH 631 0
DWIDTH 12 0
BBX 10 14 0 0
BITMAP
0FC0
1FC0
38C0
30C0
30C0
10C0
18C0
07C0
0FC0
1CC0
18C0
30C0
70C0
E0C0
ENDCHAR
STARTCHAR afii10065
ENCODING 224
SWIDTH 526 0
DWIDTH 10 0
BBX 9 10 1 0
BITMAP
3E00
7F00
4300
0300
3F00
7F00
C300
C300
FF80
7380
ENDCHAR
STARTCHAR afii10066
ENCODING 225
SWIDTH 631 0
DWIDTH 12 0
BBX 10 14 1 0
BITMAP
1F80
7F80
6000
C000
DE00
FF80
E180
C0C0
C0C0
C0C0
C0C0
6180
7F80
1E00
ENDCHAR
STARTCHAR afii10067
ENCODING 226
SWIDTH 578 0
DWIDTH 11 0
BBX 8 10 2 0
BITMAP
FC
FE
C3
C7
FC
FE
C3
C3
FF
FE
ENDCHAR
STARTCHAR afii10068
ENCODING 227
SWIDTH 473 0
DWIDTH 9 0
BBX 7 10 2 0
BITMAP
FE
FE
C0
C0
C0
C0
C0
C0
C0
C0
ENDCHAR
STARTCHAR afii10069
ENCODING 228
SWIDTH 631 0
DWIDTH 12 0
BBX 10 12 1 -2
BITMAP
3F80
3F80
3180
3180
3180
3180
6180
6180
FFC0
FFC0
C0C0
C0C0
ENDCHAR
STARTCHAR afii10070
ENCODING 229
SWIDTH 578 0
DWIDTH 11 0
BBX 8 10 1 0
BITMAP
3C
7E
63
C3
FF
FF
C0
E1
7F
3E
ENDCHAR
STARTCHAR afii10072
ENCODING 230
SWIDTH 842 0
DWIDTH 16 0
BBX 16 10 0 0
BITMAP
718E
318C
1998
0DB0
0FF0
0FF0
1DB8
399C
718E
E187
ENDCHAR
STARTCHAR afii10073
ENCODING 231
SWIDTH 526 0
DWIDTH 10 0
BBX 8 10 1 0
BITMAP
7C
FE
83
07
3C
3E
03
83
FF
7E
ENDCHAR
STARTCHAR afii10074
ENCODING 232
SWIDTH 631 0
DWIDTH 12 0
BBX 8 10 2 0
BITMAP
C3
C7
CF
CF
DB
DB
F3
F3
E3
C3
ENDCHAR
STARTCHAR afii10075
ENCODING 233
SWIDTH 631 0
DWIDTH 12 0
BBX 8 14 2 0
BITMAP
42
7E
3C
00
C3
C7
CF
CF
DB
DB
F3
F3
E3
C3
ENDCHAR
STARTCHAR afii10076
ENCODING 234
SWIDTH 578 0
DWIDTH 11 0
BBX 9 10 2 0
BITMAP
C700
C600
CC00
D800
F800
F800
DC00
CE00
C700
C380
ENDCHAR
STARTCHAR afii10077
ENCODING 235
SWIDTH 631 0
DWIDTH 12 0
BBX 9 10 1 0
BITMAP
3F80
3F80
3180
3180
3180
3180
3180
3180
F180
E180
ENDCHAR
STARTCHAR afii10078
ENCODING 236
SWIDTH 736 0
DWIDTH 14 0
BBX 10 10 2 0
BITMAP
C0C0
E0C0
E1C0
F1C0
F3C0
F3C0
DEC0
DEC0
CCC0
C0C0
ENDCHAR
STARTCHAR afii10079
ENCODING 237
SWIDTH 631 0
DWIDTH 12 0
BBX 8 10 2 0
BITMAP
C3
C3
C3
C3
FF
FF
C3
C3
C3
C3
ENDCHAR
STARTCHAR afii10080
ENCODING 238
SWIDTH 631 0
DWIDTH 12 0
BBX 10 10 1 0
BITMAP
1E00
7F80
6180
C0C0
C0C0
C0C0
C0C0
6180
7F80
1E00
ENDCHAR
STARTCHAR afii10081
ENCODING 239
SWIDTH 631 0
DWIDTH 12 0
BBX 8 10 2 0
BITMAP
FF
FF
C3
C3
C3
C3
C3
C3
C3
C3
ENDCHAR
STARTCHAR afii10082
ENCODING 240
SWIDTH 631 0
DWIDTH 12 0
BBX 9 14 2 -4
BITMAP
DE00
FF00
E380
C180
C180
C180
C180
E300
FF00
DE00
C000
C000
C000
C000
ENDCHAR
STARTCHAR afii10083
ENCODING 241
SWIDTH 526 0
DWIDTH 10 0
BBX 8 10 1 0
BITMAP
1E
7F
61
C0
C0
C0
C0
61
7F
1E
ENDCHAR
STARTCHAR afii10084
ENCODING 242
SWIDTH 421 0
DWIDTH 8 0
BBX 8 10 0 0
BITMAP
FF
FF
18
18
18
18
18
18
18
18
ENDCHAR
STARTCHAR afii10085
ENCODING 243
SWIDTH 526 0
DWIDTH 10 0
BBX 10 14 0 -4
BITMAP
C0C0
61C0
6180
6180
3300
3300
1F00
1E00
1E00
0C00
0C00
1C00
1800
3800
ENDCHAR
STARTCHAR afii10086
ENCODING 244
SWIDTH 842 0
DWIDTH 16 0
BBX 14 18 1 -4
BITMAP
0300
0300
0300
0300
3B70
7FF8
6798
C30C
C30C
C30C
C30C
6798
7FF8
3B70
0300
0300
0300
0300
ENDCHAR
STARTCHAR afii10087
ENCODING 245
SWIDTH 631 0
DWIDTH 12 0
BBX 10 10 1 0
BITMAP
E1C0
7180
3300
1F00
1E00
1E00
3E00
3300
6380
E1C0
ENDCHAR
STARTCHAR afii10088
ENCODING 246
SWIDTH 631 0
DWIDTH 12 0
BBX 9 12 2 -2
BITMAP
C300
C300
C300
C300
C300
C300
C300
C300
FF80
FF80
0180
0180
ENDCHAR
STARTCHAR afii10089
ENCODING 247
SWIDTH 631 0
DWIDTH 12 0
BBX 8 10 2 0
BITMAP
C3
C3
C3
C3
C7
FF
73
03
03
03
ENDCHAR
STARTCHAR afii10090
ENCODING 248
SWIDTH 947 0
DWIDTH 18 0
BBX 14 10 2 0
BITMAP
C30C
C30C
C30C
C30C
C30C
C30C
C30C
C30C
FFFC
FFFC
ENDCHAR
STARTCHAR afii10091
ENCODING 249
SWIDTH 947 0
DWIDTH 18 0
BBX 15 12 2 -2
BITMAP
C30C
C30C
C30C
C30C
C30C
C30C
C30C
C30C
FFFE
FFFE
0006
0006
ENDCHAR
STARTCHAR afii10092
ENCODING 250
SWIDTH 578 0
DWIDTH 11 0
BBX 10 10 0 0
BITMAP
F000
F000
3000
3000
3F00
3F80
30C0
30C0
3FC0
3F80
ENDCHAR
STARTCHAR afii10093
ENCODING 251
SWIDTH 842 0
DWIDTH 16 0
BBX 12 10 2 0
BITMAP
C030
C030
C030
C030
FC30
FE30
C330
C330
FF30
FE30
ENDCHAR
STARTCHAR afii10094
ENCODING 252
SWIDTH 578 0
DWIDTH 11 0
BBX 8 10 2 0
BITMAP
C0
C0
C0
C0
FC
FE
C3
C3
FF
FE
ENDCHAR
STARTCHAR afii10095
ENCODING 253
SWIDTH 526 0
DWIDTH 10 0
BBX 8 10 1 0
BITMAP
78
FE
86
03
1F
1F
03
86
FE
78
ENDCHAR
STARTCHAR afii10096
ENCODING 254
SWIDTH 842 0
DWIDTH 16 0
BBX 13 10 2 0
BITMAP
C1C0
C7F0
C630
CC18
FC18
FC18
CC18
C630
C7F0
C1C0
ENDCHAR
STARTCHAR afii10097
ENCODING 255
SWIDTH 631 0
DWIDTH 12 0
BBX 9 10 1 0
BITMAP
3F80
7F80
6180
6180
3F80
0F80
1980
3180
6180
E180
ENDCHAR
STARTCHAR fl
ENCODING -1
SWIDTH 645 0
DWIDTH 12 0
BBX 9 15 1 0
BITMAP
3F80
7F80
6180
6180
6180
F980
F980
6180
6180
6180
6180
6180
6180
6180
6180
ENDCHAR
STARTCHAR Zcaron
ENCODING -1
SWIDTH 605 0
DWIDTH 11 0
BBX 10 18 1 0
BITMAP
3300
1E00
0C00
0000
FFC0
FFC0
0180
0380
0300
0600
0E00
1C00
1800
3000
7000
E000
FFC0
FFC0
ENDCHAR
STARTCHAR oe
ENCODING -1
SWIDTH 930 0
DWIDTH 18 0
BBX 15 10 1 0
BITMAP
1C78
7EFC
63C6
C186
C1FE
C1FE
C180
63C2
7E7E
3E3C
ENDCHAR
STARTCHAR Ydieresis
ENCODING -1
SWIDTH 623 0
DWIDTH 12 0
BBX 12 17 0 0
BITMAP
0980
0980
0000
E030
6060
70E0
30C0
1980
1F80
0F00
0700
0600
0600
0600
0600
0600
0600
ENDCHAR
STARTCHAR dotlessi
ENCODING -1
SWIDTH 289 0
DWIDTH 5 0
BBX 2 10 2 0
BITMAP
C0
C0
C0
C0
C0
C0
C0
C0
C0
C0
ENDCHAR
STARTCHAR lslash
ENCODING -1
SWIDTH 289 0
DWIDTH 5 0
BBX 6 14 0 0
BITMAP
30
30
30
30
34
3C
30
F0
B0
30
30
30
30
30
ENDCHAR
STARTCHAR Lslash
ENCODING -1
SWIDTH 533 0
DWIDTH 10 0
BBX 10 14 0 0
BITMAP
3000
3000
3000
3000
3400
3C00
3800
F000
B000
3000
3000
3000
3FC0
3FC0
ENDCHAR
STARTCHAR fi
ENCODING -1
SWIDTH 645 0
DWIDTH 12 0
BBX 9 15 1 0
BITMAP
3C00
3D80
6180
6000
6000
FF80
FF80
6180
6180
6180
6180
6180
6180
6180
6180
ENDCHAR
STARTCHAR OE
ENCODING -1
SWIDTH 1000 0
DWIDTH 19 0
BBX 17 14 1 0
BITMAP
0F7F80
3FFF80
70E000
606000
C06000
C06000
C07F00
C07F00
C06000
C06000
606000
70E000
3FFF80
0F7F80
ENDCHAR
STARTCHAR caron
ENCODING -1
SWIDTH 614 0
DWIDTH 12 0
BBX 6 3 3 11
BITMAP
CC
78
30
ENDCHAR
STARTCHAR ogonek
ENCODING -1
SWIDTH 614 0
DWIDTH 12 0
BBX 3 3 5 -4
BITMAP
40
80
E0
ENDCHAR
STARTCHAR hungarumlaut
ENCODING -1
SWIDTH 614 0
DWIDTH 12 0
BBX 6 3 3 11
BITMAP
3C
58
F0
ENDCHAR
STARTCHAR dotaccent
ENCODING -1
SWIDTH 614 0
DWIDTH 12 0
BBX 2 2 5 12
BITMAP
C0
C0
ENDCHAR
STARTCHAR breve
ENCODING -1
SWIDTH 614 0
DWIDTH 12 0
BBX 6 3 3 11
BITMAP
84
FC
78
ENDCHAR
STARTCHAR tilde
ENCODING -1
SWIDTH 614 0
DWIDTH 12 0
BBX 6 2 3 12
BITMAP
F4
B8
ENDCHAR
STARTCHAR circumflex
ENCODING -1
SWIDTH 614 0
DWIDTH 12 0
BBX 6 3 3 11
BITMAP
30
78
CC
ENDCHAR
STARTCHAR scaron
ENCODING -1
SWIDTH 510 0
DWIDTH 10 0
BBX 7 14 1 0
BITMAP
66
3C
18
00
7C
FC
C0
E0
78
3E
06
86
FE
7C
ENDCHAR
STARTCHAR ring
ENCODING -1
SWIDTH 614 0
DWIDTH 12 0
BBX 3 3 4 12
BITMAP
E0
A0
E0
ENDCHAR
STARTCHAR florin
ENCODING -1
SWIDTH 633 0
DWIDTH 12 0
BBX 9 18 2 -4
BITMAP
0780
0F80
1800
1800
3000
3000
3000
FC00
FC00
3000
3000
6000
6000
6000
6000
6000
C000
C000
ENDCHAR
STARTCHAR fraction
ENCODING -1
SWIDTH 36 0
DWIDTH 1 0
BBX 12 14 -5 0
BITMAP
0030
0060
00C0
01C0
0180
0300
0700
0E00
0C00
1800
3800
3000
6000
C000
ENDCHAR
STARTCHAR Scaron
ENCODING -1
SWIDTH 539 0
DWIDTH 10 0
BBX 8 18 1 0
BITMAP
66
3C
18
00
3E
7E
E2
C0
C0
70
3C
1E
07
03
03
87
FE
7C
ENDCHAR
STARTCHAR zcaron
ENCODING -1
SWIDTH 573 0
DWIDTH 11 0
BBX 9 14 1 0
BITMAP
3300
1E00
0C00
0000
FF80
FF80
0300
0600
0C00
1800
3000
6000
FF80
FF80
ENDCHAR
ENDFONT
